<svg width="242" height="40" viewBox="0 0 242 40" fill="none" xmlns="http://www.w3.org/2000/svg">
<path d="M19.5986 39.1972C30.4226 39.1972 39.1972 30.4226 39.1972 19.5986C39.1972 8.77459 30.4226 0 19.5986 0C8.77459 0 0 8.77459 0 19.5986C0 30.4226 8.77459 39.1972 19.5986 39.1972Z" fill="#77459B"/>
<path d="M14.2274 11.6589C15.464 11.6589 16.4664 10.6565 16.4664 9.41986C16.4664 8.18325 15.464 7.18079 14.2274 7.18079C12.9907 7.18079 11.9883 8.18325 11.9883 9.41986C11.9883 10.6565 12.9907 11.6589 14.2274 11.6589Z" fill="#46BFB2"/>
<path d="M32.4831 17.739C32.4831 14.8645 30.1295 12.5252 27.2353 12.5252C25.7784 12.5252 24.4593 13.1248 23.5107 14.0877C22.6444 12.9226 21.2466 12.1852 19.7467 12.1852C17.1729 12.1852 15.0806 14.2739 15.0806 16.8405C15.0806 18.3762 15.7876 19.3122 16.2082 19.8707L16.3675 20.0819C16.781 20.6295 17.6419 21.7715 17.6419 23.8083C17.6419 25.4173 17.1908 26.5199 16.3031 27.089L16.2816 27.1033C16.0776 27.234 15.4601 27.6313 14.3146 27.6313C13.3123 27.6313 12.4227 27.0192 12.0522 26.0921L9.30664 26.8886C10.0387 29.0417 12.0415 30.4825 14.3146 30.4825C15.6301 30.4825 16.8114 30.1532 17.8244 29.5017L17.8423 29.491C19.0522 28.716 20.4966 27.1016 20.4966 23.8083C20.4966 20.8157 19.2008 19.0992 18.6477 18.3654L18.4867 18.1524C18.1663 17.7282 17.9354 17.4222 17.9354 16.8423C17.9354 15.865 18.7659 15.0381 19.7503 15.0381C20.5414 15.0381 21.2555 15.5572 21.4882 16.3018C21.4936 16.3196 21.5007 16.3375 21.5061 16.3554C21.7173 16.9479 21.95 17.8983 22.0735 18.5551C22.0753 18.5695 22.0842 18.6142 22.0932 18.6643C22.0967 18.684 22.1003 18.7037 22.1039 18.7234C22.1057 18.7377 22.1093 18.7538 22.1111 18.7699C22.2847 19.817 22.3724 20.8354 22.3724 21.7965C22.3724 23.1335 22.2202 24.4634 21.9231 25.7574H24.8387C25.0929 24.4562 25.2254 23.1281 25.2254 21.7965C25.2254 20.6976 25.1269 19.5449 24.9354 18.3672C24.93 18.3243 24.9211 18.2777 24.9103 18.2187C24.9032 18.1757 24.8942 18.131 24.8871 18.0862C24.8728 17.986 24.8656 17.8392 24.8656 17.7408C24.8656 16.461 25.952 15.38 27.2371 15.38C28.558 15.38 29.6337 16.4396 29.6337 17.7408C29.6337 18.6303 29.1594 19.4322 28.3933 19.8546L31.5381 20.7692C32.1412 19.8993 32.4831 18.8505 32.4831 17.739Z" fill="#F6F3F8"/>
<path d="M55.0434 12.0893V22.2603C55.0434 23.053 54.8574 23.6753 54.4693 24.1232C54.0893 24.5751 53.5314 24.805 52.8037 24.805C52.076 24.805 51.4817 24.5672 51.0896 24.0995C50.6974 23.6278 50.4872 22.9738 50.471 22.1215H46.4404C46.4404 24.0796 47.0307 25.6017 48.2112 26.6957C49.3916 27.7858 50.94 28.3288 52.8603 28.3288C54.7806 28.3288 56.2764 27.7977 57.4084 26.7354C58.5444 25.6731 59.1104 24.1827 59.1104 22.2642V10.9279L55.0434 12.0893Z" fill="#303030"/>
<path d="M91.9012 14.7252C91.3878 13.9958 90.6722 13.3894 89.7586 12.9058C88.8449 12.4262 87.7938 12.1844 86.6052 12.1844C85.263 12.1844 84.0421 12.5253 82.9344 13.1991C81.8348 13.8729 80.9616 14.8322 80.3147 16.0609C79.6719 17.2976 79.3525 18.7127 79.3525 20.3101C79.3525 21.9075 79.6679 23.2909 80.3147 24.5157C80.9575 25.7365 81.8307 26.6799 82.9344 27.3379C84.0421 27.9998 85.2711 28.3248 86.6335 28.3248C87.8221 28.3248 88.8651 28.091 89.7586 27.6193C90.652 27.1476 91.3635 26.557 91.9012 25.8435L95.9642 27.0009V10.9279H91.9053V14.7252H91.9012ZM91.3231 22.728C90.9431 23.4137 90.4216 23.9409 89.7707 24.3056C89.1158 24.6742 88.4164 24.8565 87.6685 24.8565C86.9206 24.8565 86.2293 24.6821 85.5945 24.3214C84.9598 23.9687 84.4504 23.4415 84.0583 22.7557C83.6621 22.07 83.4681 21.2535 83.4681 20.3141C83.4681 19.3747 83.6621 18.5502 84.0583 17.8446C84.4504 17.1391 84.9679 16.6 85.6107 16.2195C86.2535 15.8469 86.9408 15.6566 87.6685 15.6566C88.3962 15.6566 89.1158 15.839 89.7707 16.2076C90.4216 16.5762 90.9391 17.1034 91.3231 17.7891C91.7112 18.4788 91.8972 19.3033 91.8972 20.2586C91.8972 21.2178 91.7112 22.0423 91.3231 22.728Z" fill="#303030"/>
<path d="M73.4707 13.4132C72.9371 12.6997 72.2215 12.1051 71.328 11.6374C70.4346 11.1657 69.3956 10.9279 68.203 10.9279C66.8406 10.9279 65.6116 11.2569 64.5039 11.9188C63.4043 12.5728 62.531 13.5162 61.8842 14.741C61.2414 15.9658 60.918 17.365 60.918 18.9466C60.918 20.5281 61.2414 21.959 61.8842 23.1957C62.527 24.4245 63.4002 25.3798 64.5039 26.0576C65.6116 26.7314 66.8285 27.0723 68.1747 27.0723C69.3633 27.0723 70.4184 26.8305 71.328 26.3509C72.2417 25.8713 72.9532 25.2608 73.4707 24.5275V28.3248H77.5337V12.2557L73.4707 13.4132ZM72.8966 21.4754C72.5126 22.1612 71.9911 22.6844 71.3442 23.053C70.6893 23.4177 69.9899 23.604 69.242 23.604C68.4941 23.604 67.827 23.4137 67.1842 23.0411C66.5414 22.6606 66.024 22.1215 65.6318 21.416C65.2356 20.7104 65.0416 19.8899 65.0416 18.9466C65.0416 18.0032 65.2356 17.1906 65.6318 16.5049C66.024 15.8192 66.5333 15.292 67.1681 14.9392C67.8028 14.5785 68.49 14.4001 69.242 14.4001C69.9939 14.4001 70.6893 14.5825 71.3442 14.9551C71.9951 15.3197 72.5126 15.8469 72.8966 16.5366C73.2847 17.2223 73.4707 18.0428 73.4707 19.006C73.4747 19.9653 73.2847 20.7858 72.8966 21.4754Z" fill="#303030"/>
<path d="M108.889 23.168C108.254 24.4285 107.191 25.0587 105.695 25.0587C104.66 25.0587 103.787 24.7376 103.075 24.0995C102.36 23.4573 101.959 22.5734 101.866 21.4437H113.526C113.598 20.9919 113.639 20.4845 113.639 19.9217H113.643C113.643 18.3956 113.311 17.0479 112.652 15.8707C111.989 14.6934 111.056 13.7857 109.859 13.1436C108.658 12.5055 107.3 12.1844 105.784 12.1844C104.268 12.1844 102.816 12.5134 101.612 13.1714C100.403 13.8333 99.4609 14.7688 98.7898 15.9975C98.1147 17.2184 97.7832 18.6374 97.7832 20.2586C97.7832 21.8798 98.1188 23.2671 98.806 24.4958C99.4852 25.7206 100.435 26.664 101.652 27.3299C102.873 27.9998 104.252 28.3328 105.784 28.3328C107.684 28.3328 109.285 27.8531 110.595 26.8781C111.561 26.1606 112.293 25.3005 112.798 24.2897L108.889 23.168ZM101.899 18.788C102.052 17.7376 102.469 16.9132 103.148 16.3186C103.827 15.728 104.672 15.4347 105.667 15.4347C106.722 15.4347 107.615 15.7399 108.343 16.3503C109.071 16.9647 109.442 17.7733 109.463 18.792H101.899C101.899 18.788 101.899 18.788 101.899 18.788Z" fill="#303030"/>
<path d="M233.705 27.9403C229.116 27.9403 225.644 24.8565 225.644 20.0643C225.644 15.2444 229.229 12.1883 233.822 12.1883C238.415 12.1883 242.001 15.2444 242.001 20.0643C241.996 24.8565 238.326 27.9403 233.705 27.9403ZM233.705 24.5791C235.827 24.5791 237.865 23.0927 237.865 20.0643C237.865 17.0083 235.884 15.5496 233.761 15.5496C231.639 15.5496 229.715 17.0083 229.715 20.0643C229.719 23.0927 231.554 24.5791 233.705 24.5791Z" fill="#303030"/>
<path d="M219.648 14.8203V12.1883L215.646 13.3299V27.9403H219.648V20.2031C219.648 17.2025 221.079 16.3067 223.452 16.3067H224.511V12.1883C222.308 12.1883 220.65 13.2229 219.648 14.8203Z" fill="#303030"/>
<path d="M206.76 23.0213C211.922 23.0213 213.988 19.9851 213.988 17.0003C213.988 13.5955 211.579 10.9239 206.76 10.9239H199.386V28.3288L203.404 27.1833V23.0213H206.76ZM203.4 14.1345H206.586C208.854 14.1345 209.856 15.2048 209.856 17.0043C209.856 18.7484 208.854 19.8463 206.586 19.8463H203.4V14.1345Z" fill="#303030"/>
<path d="M167.198 14.6776C166.68 13.9443 165.965 13.3339 165.047 12.8543C164.129 12.3707 163.074 12.1328 161.881 12.1328C160.531 12.1328 159.31 12.4737 158.199 13.1515C157.095 13.8293 156.218 14.7925 155.571 16.0253C154.924 17.2659 154.604 18.6849 154.604 20.2903C154.604 21.8956 154.924 23.2829 155.571 24.5117C156.218 25.7365 157.095 26.6838 158.199 27.3418C159.31 28.0077 160.543 28.3328 161.91 28.3328C163.102 28.3328 164.149 28.0989 165.047 27.6272C165.944 27.1555 166.66 26.5649 167.198 25.8475L171.273 27.0089V10.8644H167.198V14.6776ZM166.62 22.7082C166.24 23.3939 165.714 23.929 165.063 24.2937C164.404 24.6663 163.705 24.8446 162.953 24.8446C162.201 24.8446 161.51 24.6702 160.871 24.3056C160.232 23.9488 159.723 23.4216 159.326 22.7359C158.926 22.0462 158.736 21.2257 158.736 20.2863C158.736 19.3469 158.93 18.5145 159.326 17.805C159.719 17.0994 160.236 16.5564 160.883 16.1759C161.53 15.7993 162.217 15.6091 162.949 15.6091C163.68 15.6091 164.4 15.7954 165.059 16.16C165.71 16.5326 166.231 17.0598 166.616 17.7455C167.004 18.4392 167.194 19.2637 167.194 20.2269C167.198 21.19 167.008 22.0224 166.62 22.7082Z" fill="#303030"/>
<path d="M192.691 13.3576C192.153 12.6402 191.438 12.0456 190.54 11.5779C189.643 11.1062 188.6 10.8644 187.403 10.8644C186.033 10.8644 184.8 11.1974 183.692 11.8593C182.588 12.5173 181.711 13.4647 181.064 14.6895C180.417 15.9182 180.094 17.3254 180.094 18.9109C180.094 20.4964 180.417 21.9352 181.064 23.1759C181.711 24.4126 182.588 25.3679 183.692 26.0496C184.804 26.7274 186.024 27.0683 187.375 27.0683C188.567 27.0683 189.627 26.8226 190.54 26.3469C191.458 25.8633 192.173 25.2529 192.691 24.5156V28.3288H196.766V12.1963L192.691 13.3576ZM192.113 21.4517C191.729 22.1374 191.207 22.6646 190.552 23.0372C189.893 23.4018 189.194 23.5881 188.442 23.5881C187.69 23.5881 187.023 23.3979 186.376 23.0213C185.729 22.6408 185.212 22.0977 184.82 21.3922C184.419 20.6866 184.229 19.8622 184.229 18.9148C184.229 17.9675 184.424 17.151 184.82 16.4652C185.212 15.7755 185.725 15.2484 186.364 14.8956C187.003 14.5349 187.694 14.3526 188.446 14.3526C189.198 14.3526 189.897 14.5389 190.556 14.9075C191.207 15.2721 191.729 15.7993 192.113 16.493C192.501 17.1827 192.691 18.0071 192.691 18.9703C192.691 19.9375 192.505 20.758 192.113 21.4517Z" fill="#303030"/>
<path d="M147.853 23.1481C147.214 24.4126 146.151 25.0468 144.647 25.0468C143.608 25.0468 142.731 24.7257 142.019 24.0836C141.304 23.4375 140.899 22.5536 140.806 21.4199H152.506C152.579 20.9681 152.619 20.4567 152.619 19.8939H152.623C152.623 18.3599 152.292 17.0083 151.629 15.8271C150.962 14.6459 150.028 13.7342 148.827 13.0881C147.622 12.4499 146.26 12.1249 144.736 12.1249C143.212 12.1249 141.76 12.4579 140.552 13.1158C139.339 13.7818 138.393 14.7212 137.722 15.9499C137.042 17.1747 136.711 18.5977 136.711 20.2268C136.711 21.856 137.051 23.2472 137.738 24.476C138.421 25.7048 139.375 26.6521 140.596 27.322C141.821 27.9958 143.204 28.3288 144.744 28.3288C146.652 28.3288 148.257 27.8452 149.571 26.8701C150.541 26.1527 151.277 25.2846 151.782 24.2699L147.853 23.1481ZM140.839 18.7523C140.992 17.698 141.409 16.8695 142.092 16.275C142.775 15.6844 143.62 15.3871 144.623 15.3871C145.682 15.3871 146.579 15.6923 147.311 16.3067C148.043 16.9211 148.415 17.7376 148.435 18.7563H140.839C140.839 18.7523 140.839 18.7523 140.839 18.7523Z" fill="#303030"/>
<path d="M115.964 10.8644H120.221L125.477 23.8497L130.732 10.8644H134.965V28.3288H131.157V16.9686L126.73 28.3288H124.219L119.768 16.9686V28.3288H115.96V10.8644H115.964Z" fill="#303030"/>
<path d="M173.904 12.7234C173.904 11.681 174.737 10.8644 175.889 10.8644C177.021 10.8644 177.874 11.681 177.874 12.7234C177.874 13.7659 177.021 14.5825 175.889 14.5825C174.733 14.5785 173.904 13.7659 173.904 12.7234Z" fill="#303030"/>
<path d="M177.878 27.1674H173.844V17.0122L177.878 15.8627V27.1674Z" fill="#303030"/>
</svg>
